<svg width="26" height="26" viewBox="0 0 26 26" fill="none" xmlns="http://www.w3.org/2000/svg">
<path d="M10.7645 2.75596C11.3334 0.414679 14.6666 0.414679 15.2355 2.75596C15.6002 4.26577 17.3361 4.98784 18.6635 4.17824C20.7204 2.92372 23.0762 5.27959 21.8217 7.33642C21.0121 8.66388 21.7269 10.3998 23.244 10.7645C25.5853 11.3334 25.5853 14.6666 23.244 15.2355C21.7342 15.6002 21.0121 17.3361 21.8217 18.6636C23.0762 20.7204 20.7204 23.0763 18.6635 21.8218C17.3361 21.0122 15.6002 21.7269 15.2355 23.244C14.6666 25.5853 11.3334 25.5853 10.7645 23.244C10.3998 21.7342 8.66381 21.0122 7.33636 21.8218C5.27953 23.0763 2.92368 20.7204 4.1782 18.6636C4.98781 17.3361 4.27306 15.6002 2.75596 15.2355C0.414679 14.6666 0.414679 11.3334 2.75596 10.7645C4.26577 10.3998 4.98781 8.66388 4.1782 7.33642C2.92368 5.27959 5.27953 2.92372 7.33636 4.17824C8.66381 4.98784 10.3998 4.27306 10.7645 2.75596Z" stroke="#005FE8" stroke-width="2" stroke-linecap="round" stroke-linejoin="round"/>
<path fill-rule="evenodd" clip-rule="evenodd" d="M12.9964 9.99219C11.3387 9.99219 9.99219 11.3387 9.99219 12.9964C9.99219 14.6542 11.3387 16.0007 12.9964 16.0007C14.6541 16.0007 16.0007 14.6542 16.0007 12.9964C16.0007 11.3387 14.6541 9.99219 12.9964 9.99219ZM7.99219 12.9964C7.99219 10.2342 10.2342 7.99219 12.9964 7.99219C15.7587 7.99219 18.0007 10.2342 18.0007 12.9964C18.0007 15.7587 15.7587 18.0007 12.9964 18.0007C10.2341 18.0007 7.99219 15.7587 7.99219 12.9964Z" fill="#005FE8"/>
</svg>
