<svg width="21" height="24" viewBox="0 0 21 24" fill="none" xmlns="http://www.w3.org/2000/svg">
<path d="M3.31406 24C2.78906 24 2.32969 23.8 1.93594 23.4C1.54219 23 1.34531 22.5333 1.34531 22V3H0.984375C0.705469 3 0.47168 2.90361 0.283008 2.71083C0.0943359 2.51803 0 2.27914 0 1.99417C0 1.70917 0.0943359 1.47222 0.283008 1.28333C0.47168 1.09444 0.705469 1 0.984375 1H6.16875C6.16875 0.711111 6.26309 0.472222 6.45176 0.283333C6.64043 0.0944445 6.87422 0 7.15312 0H13.8469C14.1258 0 14.3596 0.0958333 14.5482 0.2875C14.7369 0.479167 14.8312 0.716667 14.8312 1H20.0156C20.2945 1 20.5283 1.09639 20.717 1.28917C20.9057 1.48197 21 1.72086 21 2.00583C21 2.29083 20.9057 2.52778 20.717 2.71667C20.5283 2.90556 20.2945 3 20.0156 3H19.6547V22C19.6547 22.5333 19.4578 23 19.0641 23.4C18.6703 23.8 18.2109 24 17.6859 24H3.31406ZM3.31406 3V22H17.6859V3H3.31406ZM6.79219 18.1333C6.79219 18.4167 6.88707 18.6542 7.07684 18.8458C7.26662 19.0375 7.50178 19.1333 7.7823 19.1333C8.06285 19.1333 8.29609 19.0375 8.48203 18.8458C8.66797 18.6542 8.76094 18.4167 8.76094 18.1333V6.83333C8.76094 6.55 8.66605 6.3125 8.47629 6.12083C8.2865 5.92917 8.05135 5.83333 7.77082 5.83333C7.49027 5.83333 7.25703 5.92917 7.07109 6.12083C6.88516 6.3125 6.79219 6.55 6.79219 6.83333V18.1333ZM12.2391 18.1333C12.2391 18.4167 12.3339 18.6542 12.5237 18.8458C12.7135 19.0375 12.9487 19.1333 13.2292 19.1333C13.5097 19.1333 13.743 19.0375 13.9289 18.8458C14.1148 18.6542 14.2078 18.4167 14.2078 18.1333V6.83333C14.2078 6.55 14.1129 6.3125 13.9232 6.12083C13.7334 5.92917 13.4982 5.83333 13.2177 5.83333C12.9371 5.83333 12.7039 5.92917 12.518 6.12083C12.332 6.3125 12.2391 6.55 12.2391 6.83333V18.1333Z" fill="#E3173B"/>
</svg>
