<svg width="17" height="17" viewBox="0 0 17 17" fill="white" xmlns="http://www.w3.org/2000/svg">
<path fill-rule="evenodd" clip-rule="evenodd" d="M7.02449 1.63166C4.44169 1.63166 2.34792 3.7878 2.34792 6.44753C2.34792 9.10726 4.44169 11.2634 7.02449 11.2634C9.60729 11.2634 11.7011 9.10726 11.7011 6.44753C11.7011 3.7878 9.60729 1.63166 7.02449 1.63166ZM0.789062 6.44753C0.789062 2.90122 3.58076 0.0263672 7.02449 0.0263672C10.4682 0.0263672 13.2599 2.90122 13.2599 6.44753C13.2599 7.93139 12.7712 9.29769 11.9504 10.385L16.1493 14.7091C16.4537 15.0225 16.4537 15.5307 16.1493 15.8442C15.845 16.1576 15.3515 16.1576 15.0471 15.8442L10.8481 11.5201C9.79221 12.3654 8.46543 12.8687 7.02449 12.8687C3.58076 12.8687 0.789062 9.99384 0.789062 6.44753Z" fill="#707070"/>
</svg>
