<svg width="116" height="36" viewBox="0 0 116 36" fill="none" xmlns="http://www.w3.org/2000/svg">
<path fill-rule="evenodd" clip-rule="evenodd" d="M12.6016 0V6.00005L0.00176811 17.9999L12.6016 29.9997V35.9997L0.00146008 23.9996V18.0001V17.9996V12.0001L12.6016 0Z" fill="#005FE8"/>
<path fill-rule="evenodd" clip-rule="evenodd" d="M103 0V6.00005L115.6 18L103 30V36L115.6 23.9999V18.0001V17.9999V12.0001L103 0Z" fill="#005FE8"/>
<path d="M13 23.7654V12.8883H17.0513C18.3623 12.8883 19.3667 13.1927 20.0644 13.8017C20.7677 14.4106 21.1194 15.2179 21.1194 16.2235C21.1194 17.2123 20.7677 18.0112 20.0644 18.6201C19.3667 19.2235 18.3623 19.5251 17.0513 19.5251H14.9919V23.7654H13ZM18.925 23.7654L16.0216 18.6704H18.1485L21.5245 23.7654H18.925ZM14.9919 18.2011H16.8487C17.5802 18.2011 18.1344 18.0363 18.5114 17.7067C18.8884 17.3715 19.0769 16.9385 19.0769 16.4078C19.0769 15.8659 18.9053 15.4302 18.562 15.1006C18.2188 14.7654 17.7152 14.5978 17.0513 14.5978H14.9919V18.2011Z" fill="white"/>
<path d="M25.5345 23.7654V12.8883H32.5736V14.5978H27.5264V17.4637H32.2697V19.1732H27.5264V22.0391H32.5736V23.7654H25.5345Z" fill="white"/>
<path d="M36.9779 12.8883H38.9697V19.6592C38.9697 20.5531 39.1976 21.1983 39.6534 21.595C40.1148 21.9916 40.7028 22.1899 41.4174 22.1899C42.1376 22.1899 42.7256 21.9916 43.1814 21.595C43.6371 21.1983 43.865 20.5531 43.865 19.6592V12.8883H45.8569V19.6592C45.8569 20.5754 45.6796 21.3575 45.3252 22.0056C44.9707 22.6536 44.4615 23.148 43.7975 23.4888C43.1392 23.8296 42.3458 24 41.4174 24C40.489 24 39.6928 23.8296 39.0288 23.4888C38.3705 23.148 37.8641 22.6536 37.5096 22.0056C37.1551 21.3575 36.9779 20.5754 36.9779 19.6592V12.8883Z" fill="white"/>
<path d="M50.4556 12.8883H52.6331L57.6128 20.648H57.4609V12.8883H59.4527V23.7654H57.4271L52.1267 15.5363H52.4474V23.7654H50.4556V12.8883Z" fill="white"/>
<path d="M64.2771 23.7654V12.8883H66.2689V23.7654H64.2771Z" fill="white"/>
<path d="M75.2946 24C74.3212 24 73.4603 23.7877 72.7119 23.3631C71.9692 22.9385 71.3868 22.3045 70.9648 21.4609C70.5428 20.6173 70.3318 19.5698 70.3318 18.3184C70.3318 17.0447 70.5428 15.9916 70.9648 15.1592C71.3868 14.3212 71.9692 13.6983 72.7119 13.2905C73.4603 12.8771 74.3212 12.6704 75.2946 12.6704C76.2737 12.6704 77.1374 12.8827 77.8857 13.3073C78.6341 13.7263 79.2193 14.3547 79.6413 15.1927C80.0633 16.0307 80.2743 17.0726 80.2743 18.3184C80.2743 19.5866 80.0633 20.6425 79.6413 21.486C79.2193 22.3296 78.6341 22.9609 77.8857 23.3799C77.1374 23.7933 76.2737 24 75.2946 24ZM75.2946 22.2067C76.1893 22.2067 76.8982 21.8715 77.4215 21.2011C77.9504 20.5307 78.2149 19.5642 78.2149 18.3017C78.2149 17.0838 77.9504 16.1369 77.4215 15.4609C76.8982 14.7849 76.1893 14.4469 75.2946 14.4469C74.4168 14.4469 73.7135 14.7877 73.1846 15.4693C72.6557 16.1453 72.3912 17.095 72.3912 18.3184C72.3912 19.5754 72.6557 20.5391 73.1846 21.2095C73.7135 21.8743 74.4168 22.2067 75.2946 22.2067ZM73.2014 11.6229L72.4081 11.1453C72.5431 10.4693 72.7682 9.94413 73.0833 9.56983C73.404 9.18994 73.781 9 74.2143 9C74.3774 9 74.5462 9.03073 74.7207 9.09218C74.9007 9.15363 75.1427 9.26257 75.4465 9.41899C75.7335 9.56425 75.9473 9.6676 76.088 9.72905C76.2343 9.7905 76.3749 9.82123 76.51 9.82123C76.6732 9.82123 76.8335 9.75698 76.9911 9.62849C77.1486 9.49441 77.2865 9.28492 77.4046 9L78.2486 9.55307C78.1699 9.95531 78.0405 10.3128 77.8604 10.6257C77.686 10.933 77.4834 11.176 77.2527 11.3547C77.022 11.5335 76.7913 11.6229 76.5606 11.6229C76.3581 11.6229 76.1555 11.5838 75.9529 11.5056C75.756 11.4274 75.4972 11.3101 75.1764 11.1536C74.912 11.0084 74.715 10.9106 74.5856 10.8603C74.4562 10.8101 74.3324 10.7849 74.2143 10.7849C74.0342 10.7849 73.8598 10.8436 73.691 10.9609C73.5278 11.0726 73.3646 11.2933 73.2014 11.6229Z" fill="white"/>
<path d="M84.3022 23.7654V12.8883H91.3413V14.5978H86.2941V17.4637H91.0374V19.1732H86.2941V22.0391H91.3413V23.7654H84.3022Z" fill="white"/>
<path d="M99.7293 24C98.9697 24 98.2692 23.8687 97.6277 23.6061C96.9919 23.3436 96.4742 22.9441 96.0747 22.4078C95.6808 21.8715 95.4698 21.1899 95.4417 20.3631H97.3998C97.3998 20.7821 97.5039 21.1257 97.7121 21.3939C97.9203 21.662 98.1988 21.8631 98.5477 21.9972C98.9022 22.1257 99.2904 22.1899 99.7124 22.1899C100.118 22.1899 100.478 22.1369 100.793 22.0307C101.113 21.9246 101.364 21.7737 101.544 21.5782C101.73 21.3771 101.822 21.1397 101.822 20.8659C101.822 20.5028 101.71 20.2179 101.485 20.0112C101.265 19.8045 100.911 19.6145 100.421 19.4413L98.2607 18.5866C97.4167 18.257 96.7696 17.8743 96.3195 17.4385C95.8693 17.0028 95.6443 16.4022 95.6443 15.6369C95.6443 14.7542 95.9959 14.0391 96.6993 13.4916C97.4026 12.9441 98.3845 12.6704 99.6449 12.6704C100.872 12.6704 101.82 12.9553 102.489 13.5251C103.159 14.0894 103.539 14.8771 103.629 15.8883H101.671C101.597 15.4581 101.4 15.1145 101.08 14.8575C100.759 14.595 100.281 14.4637 99.6449 14.4637C99.0822 14.4637 98.6377 14.581 98.3114 14.8156C97.985 15.0447 97.8218 15.3352 97.8218 15.6872C97.8218 15.9888 97.9231 16.2291 98.1257 16.4078C98.3339 16.581 98.6546 16.7486 99.0878 16.9106L101.485 17.8324C102.295 18.1453 102.917 18.5391 103.35 19.014C103.783 19.4888 104 20.0838 104 20.7989C104 21.4525 103.834 22.0196 103.502 22.5C103.17 22.9749 102.686 23.3436 102.05 23.6061C101.415 23.8687 100.641 24 99.7293 24Z" fill="white"/>
</svg>
